<?xml version="1.0" encoding="UTF-8"?>
<svg xmlns="http://www.w3.org/2000/svg" viewBox="0 0 85.04 85.04">
  <defs>
    <style>
      .cls-1 {
        fill: #fff;
      }

      .cls-1, .cls-2 {
        mix-blend-mode: multiply;
      }

      .cls-2, .cls-3 {
        fill: #5a96ff;
      }

      .cls-4 {
        isolation: isolate;
      }

      .cls-5 {
        fill: #061117;
      }

      .cls-6 {
        fill: #1080bf;
      }

      .cls-7 {
        fill: #57c2ff;
      }
    </style>
  </defs>
  <g class="cls-4">
    <g id="Layer_1" data-name="Layer 1">
      <rect class="cls-5" x="0" y="0" width="85.04" height="85.04"/>
      <g>
        <path class="cls-7" d="M71.8,20.83h0c-4.41-4.41-11.55-4.41-15.96,0l-18.46,18.46,15.96,15.96,18.46-18.46c4.41-4.41,4.41-11.55,0-15.96Z"/>
        <g>
          <polygon class="cls-1" points="37.08 71.51 53.33 55.25 53.33 55.25 37.08 71.51"/>
          <path class="cls-1" d="M31.56,33.48c-4.49-4.49-11.77-4.49-16.26,0h0c-4.49,4.49-4.49,11.77,0,16.26l5.82,5.82,16.26-16.26-5.82-5.82Z"/>
        </g>
        <polygon class="cls-2" points="37.08 71.51 53.33 55.25 53.33 55.25 37.08 71.51"/>
        <path class="cls-3" d="M31.56,33.48c-4.49-4.49-11.77-4.49-16.26,0h0c-4.49,4.49-4.49,11.77,0,16.26l5.82,5.82,16.26-16.26-5.82-5.82Z"/>
        <rect class="cls-6" x="25.73" y="44.12" width="22.99" height="22.56" transform="translate(-28.27 42.55) rotate(-45)"/>
      </g>
    </g>
  </g>
</svg>